<svg width="27" height="27" viewBox="0 0 27 27" fill="none" xmlns="http://www.w3.org/2000/svg">
<path d="M24.593 10.1742C24.1512 9.7125 23.6941 9.23672 23.5219 8.81836C23.3625 8.43516 23.3531 7.8 23.3438 7.18477C23.3262 6.04102 23.3074 4.74492 22.4062 3.84375C21.5051 2.94258 20.209 2.92383 19.0652 2.90625C18.45 2.89687 17.8148 2.8875 17.4316 2.72812C17.0145 2.55586 16.5375 2.09883 16.0758 1.65703C15.2672 0.880078 14.3484 0 13.125 0C11.9016 0 10.984 0.880078 10.1742 1.65703C9.7125 2.09883 9.23672 2.55586 8.81836 2.72812C8.4375 2.8875 7.8 2.89687 7.18477 2.90625C6.04102 2.92383 4.74492 2.94258 3.84375 3.84375C2.94258 4.74492 2.92969 6.04102 2.90625 7.18477C2.89687 7.8 2.8875 8.43516 2.72812 8.81836C2.55586 9.23555 2.09883 9.7125 1.65703 10.1742C0.880078 10.9828 0 11.9016 0 13.125C0 14.3484 0.880078 15.266 1.65703 16.0758C2.09883 16.5375 2.55586 17.0133 2.72812 17.4316C2.8875 17.8148 2.89687 18.45 2.90625 19.0652C2.92383 20.209 2.94258 21.5051 3.84375 22.4062C4.74492 23.3074 6.04102 23.3262 7.18477 23.3438C7.8 23.3531 8.43516 23.3625 8.81836 23.5219C9.23555 23.6941 9.7125 24.1512 10.1742 24.593C10.9828 25.3699 11.9016 26.25 13.125 26.25C14.3484 26.25 15.266 25.3699 16.0758 24.593C16.5375 24.1512 17.0133 23.6941 17.4316 23.5219C17.8148 23.3625 18.45 23.3531 19.0652 23.3438C20.209 23.3262 21.5051 23.3074 22.4062 22.4062C23.3074 21.5051 23.3262 20.209 23.3438 19.0652C23.3531 18.45 23.3625 17.8148 23.5219 17.4316C23.6941 17.0145 24.1512 16.5375 24.593 16.0758C25.3699 15.2672 26.25 14.3484 26.25 13.125C26.25 11.9016 25.3699 10.984 24.593 10.1742ZM18.4758 10.9758L11.9133 17.5383C11.8262 17.6254 11.7228 17.6946 11.609 17.7418C11.4952 17.789 11.3732 17.8132 11.25 17.8132C11.1268 17.8132 11.0048 17.789 10.891 17.7418C10.7772 17.6946 10.6738 17.6254 10.5867 17.5383L7.77422 14.7258C7.68712 14.6387 7.61802 14.5353 7.57088 14.4215C7.52374 14.3077 7.49948 14.1857 7.49948 14.0625C7.49948 13.9393 7.52374 13.8173 7.57088 13.7035C7.61802 13.5897 7.68712 13.4863 7.77422 13.3992C7.95013 13.2233 8.18872 13.1245 8.4375 13.1245C8.56068 13.1245 8.68266 13.1487 8.79646 13.1959C8.91027 13.243 9.01368 13.3121 9.10078 13.3992L11.25 15.5496L17.1492 9.64922C17.2363 9.56211 17.3397 9.49302 17.4535 9.44588C17.5673 9.39874 17.6893 9.37448 17.8125 9.37448C17.9357 9.37448 18.0577 9.39874 18.1715 9.44588C18.2853 9.49302 18.3887 9.56211 18.4758 9.64922C18.5629 9.73632 18.632 9.83973 18.6791 9.95354C18.7263 10.0673 18.7505 10.1893 18.7505 10.3125C18.7505 10.4357 18.7263 10.5577 18.6791 10.6715C18.632 10.7853 18.5629 10.8887 18.4758 10.9758Z" fill="#BFE831"/>
</svg>
